<?xml version="1.0" encoding="utf-8"?>
<!-- Generator: Adobe Illustrator 23.0.6, SVG Export Plug-In . SVG Version: 6.00 Build 0)  -->
<svg version="1.1" id="Layer_1" xmlns="http://www.w3.org/2000/svg" xmlns:xlink="http://www.w3.org/1999/xlink" x="0px" y="0px"
	 viewBox="0 0 1100 380" style="enable-background:new 0 0 1100 380;" xml:space="preserve">
<style type="text/css">
	.st0{fill:#424143;}
	.st1{fill:#0660A3;}
	.st2{clip-path:url(#SVGID_1_);fill:url(#SVGID_2_);}
	.st3{clip-path:url(#SVGID_3_);fill:url(#SVGID_4_);}
	.st4{clip-path:url(#SVGID_5_);fill:url(#SVGID_6_);}
	.st5{clip-path:url(#SVGID_7_);fill:url(#SVGID_8_);}
	.st6{clip-path:url(#SVGID_9_);fill:url(#SVGID_10_);}
	.st7{clip-path:url(#SVGID_11_);fill:url(#SVGID_12_);}
	.st8{clip-path:url(#SVGID_13_);fill:url(#SVGID_14_);}
	.st9{fill:#FFFFFF;}
</style>
<g>
	<rect x="407" y="52.5" class="st9" width="3.4" height="276.3"/>
	<path class="st9" d="M465.2,264.9h-5.2v-40.1h11.8c2.3,0,4.3,0.2,6.2,0.7c1.8,0.5,3.4,1.2,4.7,2.3c1.3,1,2.3,2.3,3,3.9
		c0.7,1.6,1,3.4,1,5.6c0,4.2-1.3,7.3-4,9.5c-2.7,2.2-6.4,3.3-11.2,3.3h-6.2V264.9z M465.2,245.3h6.2c3.2,0,5.6-0.6,7.3-1.9
		c1.7-1.3,2.5-3.3,2.5-6c0-2.7-0.8-4.7-2.5-6c-1.7-1.2-4.1-1.8-7.3-1.8h-6.2V245.3z"/>
	<path class="st9" d="M515.7,265.5c-2.8,0-5.3-0.5-7.5-1.4c-2.2-0.9-4.1-2.3-5.7-4.1c-1.6-1.8-2.8-3.9-3.6-6.5
		c-0.8-2.6-1.3-5.4-1.3-8.6c0-3.2,0.4-6.1,1.3-8.6c0.9-2.5,2.1-4.7,3.7-6.5c1.6-1.8,3.5-3.1,5.7-4.1c2.2-1,4.6-1.4,7.3-1.4
		c3,0,5.6,0.5,7.9,1.5c2.3,1,4.2,2.4,5.7,4.2c1.6,1.8,2.7,4,3.5,6.5c0.8,2.5,1.2,5.3,1.2,8.3c0,3.4-0.5,6.4-1.4,8.9
		c-0.9,2.6-2.2,4.7-3.8,6.4c-1.6,1.7-3.5,3-5.7,3.9C520.7,265,518.3,265.5,515.7,265.5 M516.2,260.7c3.8,0,6.7-1.3,8.9-4
		c2.2-2.6,3.2-6.6,3.2-11.8c0-2.7-0.3-5.1-0.9-7.1c-0.6-2-1.4-3.6-2.5-4.9c-1.1-1.3-2.5-2.3-4-2.9c-1.6-0.6-3.4-0.9-5.4-0.9
		c-1.8,0-3.4,0.3-4.9,1c-1.5,0.6-2.8,1.6-4,2.9c-1.1,1.3-2,2.9-2.6,4.9c-0.6,2-1,4.3-1,7c0,2.6,0.3,4.9,0.9,6.9c0.6,2,1.5,3.6,2.7,5
		c1.1,1.3,2.5,2.3,4.2,3C512.4,260.3,514.2,260.7,516.2,260.7"/>
	<path class="st9" d="M574.6,263.8c-1.1,0.5-2.4,0.9-3.9,1.2c-1.5,0.3-3.1,0.4-4.9,0.4c-3.1,0-5.9-0.5-8.4-1.4
		c-2.5-0.9-4.5-2.3-6.3-4c-1.7-1.7-3-3.9-4-6.3c-0.9-2.5-1.4-5.2-1.4-8.3c0-3.4,0.5-6.4,1.4-9c0.9-2.6,2.2-4.8,4-6.6
		c1.7-1.8,3.8-3.1,6.2-4.1c2.4-0.9,5.1-1.4,8.1-1.4c2.3,0,4.1,0.2,5.6,0.5c1.4,0.3,2.6,0.7,3.6,1.1l-1,4.5c-1.3-0.5-2.5-0.8-3.8-1
		c-1.3-0.2-2.6-0.3-3.8-0.3c-4.8,0-8.4,1.3-10.9,4c-2.5,2.7-3.8,6.6-3.8,11.8c0,2.5,0.4,4.7,1.1,6.7c0.7,2,1.7,3.6,3,5
		c1.3,1.4,2.9,2.4,4.8,3.1c1.9,0.7,4,1.1,6.3,1.1c1.3,0,2.5-0.1,3.8-0.3c1.3-0.2,2.4-0.6,3.4-1.1L574.6,263.8z"/>
	<path class="st9" d="M610.6,254.2h-17.1l-3.9,10.7h-5.2l15.3-40.1h5.1l15,40.1h-5.4L610.6,254.2z M595.1,249.5h13.8l-6.7-18.8H602
		L595.1,249.5z"/>
	<polygon class="st9" points="640.8,264.9 635.7,264.9 635.7,229.6 623.8,229.6 623.8,224.8 652.6,224.8 652.6,229.6 640.8,229.6 	
		"/>
	<path class="st9" d="M679.4,265.5c-2.8,0-5.3-0.5-7.5-1.4c-2.2-0.9-4.1-2.3-5.7-4.1c-1.6-1.8-2.8-3.9-3.6-6.5
		c-0.8-2.6-1.3-5.4-1.3-8.6c0-3.2,0.4-6.1,1.3-8.6c0.9-2.5,2.1-4.7,3.7-6.5c1.6-1.8,3.5-3.1,5.7-4.1c2.2-1,4.6-1.4,7.3-1.4
		c3,0,5.6,0.5,7.9,1.5c2.3,1,4.2,2.4,5.7,4.2c1.6,1.8,2.7,4,3.5,6.5c0.8,2.5,1.2,5.3,1.2,8.3c0,3.4-0.5,6.4-1.4,8.9
		c-0.9,2.6-2.2,4.7-3.8,6.4c-1.6,1.7-3.5,3-5.7,3.9C684.4,265,682,265.5,679.4,265.5 M679.9,260.7c3.8,0,6.7-1.3,8.9-4
		c2.2-2.6,3.2-6.6,3.2-11.8c0-2.7-0.3-5.1-0.9-7.1c-0.6-2-1.4-3.6-2.5-4.9c-1.1-1.3-2.5-2.3-4-2.9c-1.6-0.6-3.4-0.9-5.4-0.9
		c-1.8,0-3.4,0.3-4.9,1c-1.5,0.6-2.8,1.6-4,2.9c-1.1,1.3-2,2.9-2.6,4.9c-0.6,2-1,4.3-1,7c0,2.6,0.3,4.9,0.9,6.9c0.6,2,1.5,3.6,2.7,5
		c1.1,1.3,2.5,2.3,4.2,3C676.1,260.3,677.9,260.7,679.9,260.7"/>
	<polygon class="st9" points="750.4,264.9 745.3,264.9 742.8,233.6 732.7,264.9 727.3,264.9 717.2,233.7 714.7,264.9 709.5,264.9 
		713,224.8 719.3,224.8 730.1,259.3 740.7,224.8 747,224.8 	"/>
	<g>
		<path class="st9" d="M465.4,171.4H459v-50.1h14.7c2.9,0,5.4,0.3,7.7,0.9c2.3,0.6,4.2,1.5,5.8,2.8c1.6,1.3,2.9,2.9,3.7,4.9
			c0.9,2,1.3,4.3,1.3,7c0,5.2-1.7,9.2-5,11.9c-3.4,2.7-8,4.1-14.1,4.1h-7.7V171.4z M465.4,146.9h7.7c4,0,7-0.8,9.1-2.4
			c2.1-1.6,3.1-4.1,3.1-7.4c0-3.4-1-5.9-3.1-7.4c-2.1-1.5-5.1-2.3-9.1-2.3h-7.7V146.9z"/>
		<path class="st9" d="M525.4,172.1c-3.5,0-6.6-0.6-9.4-1.8s-5.2-2.9-7.2-5.1c-2-2.2-3.5-4.9-4.5-8.1c-1-3.2-1.6-6.8-1.6-10.7
			c0-4,0.5-7.6,1.6-10.8c1.1-3.2,2.6-5.9,4.6-8.1c2-2.2,4.4-3.9,7.1-5.1c2.8-1.2,5.8-1.8,9.1-1.8c3.7,0,7,0.6,9.8,1.9
			c2.8,1.3,5.2,3,7.2,5.3c1.9,2.3,3.4,5,4.4,8.2c1,3.2,1.5,6.6,1.5,10.4c0,4.2-0.6,8-1.7,11.2c-1.1,3.2-2.7,5.9-4.7,8
			c-2,2.1-4.4,3.8-7.2,4.9C531.7,171.6,528.7,172.1,525.4,172.1z M526,166.1c4.7,0,8.4-1.7,11.1-5c2.7-3.3,4-8.2,4-14.8
			c0-3.4-0.4-6.4-1.1-8.9c-0.7-2.5-1.8-4.5-3.2-6.2c-1.4-1.6-3.1-2.8-5-3.6c-2-0.8-4.2-1.1-6.7-1.1c-2.2,0-4.2,0.4-6.2,1.2
			c-1.9,0.8-3.6,2-4.9,3.6c-1.4,1.6-2.5,3.7-3.3,6.2c-0.8,2.5-1.2,5.4-1.2,8.7c0,3.3,0.4,6.2,1.2,8.7c0.8,2.5,1.9,4.5,3.3,6.2
			c1.4,1.6,3.2,2.9,5.2,3.7C521.3,165.7,523.5,166.1,526,166.1z"/>
		<path class="st9" d="M595.3,170c-1.4,0.7-3,1.2-4.9,1.5c-1.9,0.4-3.9,0.5-6.1,0.5c-3.9,0-7.4-0.6-10.5-1.8c-3.1-1.2-5.7-2.8-7.8-5
			c-2.1-2.2-3.8-4.8-4.9-7.9c-1.1-3.1-1.7-6.5-1.7-10.4c0-4.2,0.6-8,1.7-11.3c1.1-3.3,2.8-6.1,4.9-8.3c2.1-2.2,4.7-3.9,7.8-5.1
			c3-1.1,6.4-1.7,10.1-1.7c2.9,0,5.2,0.2,7,0.6c1.8,0.4,3.3,0.8,4.5,1.3l-1.2,5.7c-1.6-0.6-3.2-1-4.8-1.2c-1.6-0.2-3.2-0.4-4.8-0.4
			c-6,0-10.5,1.7-13.6,5c-3.1,3.3-4.7,8.3-4.7,14.7c0,3.1,0.4,5.9,1.3,8.3c0.9,2.5,2.1,4.5,3.8,6.2c1.6,1.7,3.6,3,5.9,3.9
			c2.3,0.9,5,1.3,7.9,1.3c1.6,0,3.2-0.1,4.8-0.4c1.6-0.3,3-0.7,4.3-1.4L595.3,170z"/>
		<path class="st9" d="M614.6,142.5h21c-0.1-2.7-0.7-5.1-1.5-7c-0.9-2-2.1-3.6-3.6-4.9c-1.5-1.3-3.3-2.3-5.4-2.9
			c-2.1-0.6-4.4-1-6.8-1c-1.4,0-3.1,0.1-5.1,0.4c-2,0.2-3.8,0.7-5.6,1.4l-1.2-5.2c1.2-0.7,3-1.3,5.4-1.8c2.4-0.5,4.8-0.8,7.4-0.8
			c3.6,0,6.8,0.5,9.7,1.5c2.9,1,5.4,2.5,7.4,4.5c2,2.1,3.6,4.7,4.7,7.8c1.1,3.2,1.6,6.9,1.6,11.3c0,4.1-0.5,7.8-1.6,11.1
			c-1,3.3-2.6,6-4.8,8.3c-2.1,2.3-4.8,4-7.9,5.2c-3.1,1.2-6.8,1.8-11,1.8c-2.6,0-4.8-0.2-6.5-0.6c-1.7-0.4-3.2-0.8-4.4-1.1l1.2-5.7
			c1.5,0.5,3.2,0.9,4.9,1.1c1.8,0.2,3.3,0.3,4.7,0.3c5.5,0,9.9-1.5,13.2-4.4c3.3-2.9,5-7.4,5.1-13.4h-21V142.5z"/>
		<path class="st9" d="M693.6,171.4h-6.4v-23h-25.3v23h-6.4v-50.1h6.4v21.2h25.3v-21.2h6.4V171.4z"/>
		<path class="st9" d="M736.5,171.4h-28v-50.1h28v6H715v15.2h19.7v5.9H715v17h21.5V171.4z"/>
		<path class="st9" d="M755.5,171.4H749v-50.1h14.7c2.9,0,5.4,0.3,7.7,0.9c2.3,0.6,4.2,1.5,5.8,2.8c1.6,1.3,2.9,2.9,3.7,4.9
			c0.9,2,1.3,4.3,1.3,7c0,5.2-1.7,9.2-5,11.9c-3.4,2.7-8,4.1-14.1,4.1h-7.7V171.4z M755.5,146.9h7.7c4,0,7-0.8,9.1-2.4
			c2.1-1.6,3.1-4.1,3.1-7.4c0-3.4-1-5.9-3.1-7.4c-2.1-1.5-5.1-2.3-9.1-2.3h-7.7V146.9z"/>
		<path class="st9" d="M800.4,171.4h-6.4v-50.1h26.5v6h-20.1V171.4z"/>
		<path class="st9" d="M850.2,172.1c-3.5,0-6.6-0.6-9.4-1.8s-5.2-2.9-7.2-5.1c-2-2.2-3.5-4.9-4.5-8.1c-1-3.2-1.6-6.8-1.6-10.7
			c0-4,0.5-7.6,1.6-10.8c1.1-3.2,2.6-5.9,4.6-8.1c2-2.2,4.4-3.9,7.1-5.1c2.8-1.2,5.8-1.8,9.1-1.8c3.7,0,7,0.6,9.8,1.9
			c2.8,1.3,5.2,3,7.2,5.3c1.9,2.3,3.4,5,4.4,8.2c1,3.2,1.5,6.6,1.5,10.4c0,4.2-0.6,8-1.7,11.2c-1.1,3.2-2.7,5.9-4.7,8
			c-2,2.1-4.4,3.8-7.2,4.9C856.5,171.6,853.5,172.1,850.2,172.1z M850.8,166.1c4.7,0,8.4-1.7,11.1-5c2.7-3.3,4-8.2,4-14.8
			c0-3.4-0.4-6.4-1.1-8.9c-0.7-2.5-1.8-4.5-3.2-6.2c-1.4-1.6-3.1-2.8-5-3.6c-2-0.8-4.2-1.1-6.7-1.1c-2.2,0-4.2,0.4-6.2,1.2
			c-1.9,0.8-3.6,2-4.9,3.6c-1.4,1.6-2.5,3.7-3.3,6.2c-0.8,2.5-1.2,5.4-1.2,8.7c0,3.3,0.4,6.2,1.2,8.7c0.8,2.5,1.9,4.5,3.3,6.2
			c1.4,1.6,3.2,2.9,5.2,3.7C846.1,165.7,848.4,166.1,850.8,166.1z"/>
		<path class="st9" d="M911.8,158h-21.4l-4.9,13.4h-6.5l19.1-50.1h6.4l18.7,50.1h-6.7L911.8,158z M892.5,152.1h17.2l-8.4-23.5h-0.3
			L892.5,152.1z"/>
		<path class="st9" d="M944.9,171.4h-6.4v-44.1h-14.8v-6h36v6h-14.8V171.4z"/>
		<path class="st9" d="M989.4,172.1c-3.5,0-6.6-0.6-9.4-1.8s-5.2-2.9-7.2-5.1c-2-2.2-3.5-4.9-4.5-8.1c-1-3.2-1.6-6.8-1.6-10.7
			c0-4,0.5-7.6,1.6-10.8c1.1-3.2,2.6-5.9,4.6-8.1c2-2.2,4.4-3.9,7.1-5.1c2.8-1.2,5.8-1.8,9.1-1.8c3.7,0,7,0.6,9.8,1.9
			c2.8,1.3,5.2,3,7.2,5.3c1.9,2.3,3.4,5,4.4,8.2c1,3.2,1.5,6.6,1.5,10.4c0,4.2-0.6,8-1.7,11.2c-1.1,3.2-2.7,5.9-4.7,8
			c-2,2.1-4.4,3.8-7.2,4.9C995.8,171.6,992.7,172.1,989.4,172.1z M990.1,166.1c4.7,0,8.4-1.7,11.1-5c2.7-3.3,4-8.2,4-14.8
			c0-3.4-0.4-6.4-1.1-8.9c-0.7-2.5-1.8-4.5-3.2-6.2c-1.4-1.6-3.1-2.8-5-3.6c-2-0.8-4.2-1.1-6.7-1.1c-2.2,0-4.2,0.4-6.2,1.2
			c-1.9,0.8-3.6,2-4.9,3.6c-1.4,1.6-2.5,3.7-3.3,6.2c-0.8,2.5-1.2,5.4-1.2,8.7c0,3.3,0.4,6.2,1.2,8.7c0.8,2.5,1.9,4.5,3.3,6.2
			c1.4,1.6,3.2,2.9,5.2,3.7C985.4,165.7,987.6,166.1,990.1,166.1z"/>
		<path class="st9" d="M1073.6,171.4h-6.4l-3.1-39.1l-12.7,39.1h-6.7l-12.6-39l-3.1,39h-6.4l4.3-50.1h7.9l13.5,43.1l13.2-43.1h7.9
			L1073.6,171.4z"/>
	</g>
	<g>
		<path class="st9" d="M218.2,213.7c-12.8,14.2-34.6,15.2-48.7,2.4c-14.1-12.8-15.2-34.7-2.4-48.8c12.8-14.2,34.6-15.2,48.7-2.4
			C229.9,177.7,231,199.6,218.2,213.7"/>
		<path class="st9" d="M112.8,191.7c0,0,19.2-9.8,30.3-53.3c11.1-43.5,52.6-63.7,52.6-63.7s-89-88.3-156.4,50.2
			C39.3,125,94.3,135.7,112.8,191.7"/>
		<path class="st9" d="M120.9,40.7c0,0,68.6-13.5,109.2,72.5c0,0,47.4,15.3,89-28.6C319,84.5,249.5-10.7,120.9,40.7"/>
		<path class="st9" d="M232.8,256.8c0,0-18.1-11.8-61.3,0.4C128.3,269.3,90,243.5,90,243.5S58.1,364.7,211.7,353.8
			C211.7,353.8,193.6,300.8,232.8,256.8"/>
		<path class="st9" d="M98,325.3c0,0-46-52.6,8.1-130.8c0,0-10.4-48.7-69.3-62.7C36.8,131.8-10.8,239.7,98,325.3"/>
		<path class="st9" d="M229.4,120.9c0,0-1.1,21.5,31,52.9c32.1,31.3,28.9,77.4,28.9,77.4s120.9-33,34.6-160.5
			C323.9,90.6,287.1,132.8,229.4,120.9"/>
		<path class="st9" d="M356.1,203.3c0,0-22.6,66.1-117.3,58.4c0,0-36.9,33.4-19.6,91.4C219.2,353.1,336.4,340.4,356.1,203.3"/>
	</g>
</g>
</svg>
