<?xml version="1.0" encoding="UTF-8" standalone="no"?>
<svg
   xmlns:dc="http://purl.org/dc/elements/1.1/"
   xmlns:cc="http://creativecommons.org/ns#"
   xmlns:rdf="http://www.w3.org/1999/02/22-rdf-syntax-ns#"
   xmlns:svg="http://www.w3.org/2000/svg"
   xmlns="http://www.w3.org/2000/svg"
   xmlns:sodipodi="http://sodipodi.sourceforge.net/DTD/sodipodi-0.dtd"
   xmlns:inkscape="http://www.inkscape.org/namespaces/inkscape"
   version="1.1"
   id="svg2"
   xml:space="preserve"
   width="740.16"
   height="325.92"
   viewBox="90 55 170 112"
   sodipodi:docname="Logo_C_G_1.1_белый.eps"><metadata
     id="metadata8"><rdf:RDF><cc:Work
         rdf:about=""><dc:format>image/svg+xml</dc:format><dc:type
           rdf:resource="http://purl.org/dc/dcmitype/StillImage" /></cc:Work></rdf:RDF></metadata><defs
     id="defs6" /><sodipodi:namedview
     pagecolor="#ffffff"
     bordercolor="#ffffff"
     borderopacity="1"
     objecttolerance="10"
     gridtolerance="10"
     guidetolerance="10"
     inkscape:pageopacity="1"
     inkscape:pageshadow="2"
     inkscape:window-width="640"
     inkscape:window-height="480"
     id="namedview4" /><g
     id="g10"
     inkscape:groupmode="layer"
     inkscape:label="ink_ext_XXXXXX"
     transform="matrix(1.3333333,0,0,-1.3333333,0,225.92)"><g
       id="g12"
       transform="scale(0.1)"><path
         d="M 0,0 H 2551.18 V 1694.41 H 0 V 0"
         style="fill:#2c63ae;fill-opacity:0;fill-rule:nonzero;stroke:none"
         id="path14" /><g
         id="g16"
         transform="scale(10)" /><path
         d="m 698.793,824.004 c -19.887,-22.051 -53.828,-23.711 -75.809,-3.777 -21.976,19.98 -23.668,54.027 -3.789,76.07 19.868,22.019 53.817,23.687 75.821,3.738 21.988,-19.953 23.672,-53.988 3.777,-76.031"
         style="fill:#ffffff;fill-opacity:1;fill-rule:nonzero;stroke:none"
         id="path18" /><path
         d="m 534.641,858.277 c 0,0 29.894,15.219 47.23,82.918 17.309,67.685 81.852,99.155 81.852,99.155 0,0 -138.532,137.48 -243.465,-78.182 0,0 85.539,-16.781 114.383,-103.891"
         style="fill:#ffffff;fill-opacity:1;fill-rule:nonzero;stroke:none"
         id="path20" /><path
         d="m 547.234,1093.35 c 0,0 106.786,21 169.985,-112.803 0,0 73.75,-23.891 138.527,44.603 0,0 -108.348,148.21 -308.512,68.2"
         style="fill:#ffffff;fill-opacity:1;fill-rule:nonzero;stroke:none"
         id="path22" /><path
         d="m 721.418,756.914 c 0,0 -28.133,18.313 -95.402,-0.594 -67.282,-18.867 -126.821,21.278 -126.821,21.278 0,0 -49.738,-188.7 189.493,-171.7 0,0 -28.262,82.454 32.73,151.016"
         style="fill:#ffffff;fill-opacity:1;fill-rule:nonzero;stroke:none"
         id="path24" /><path
         d="m 511.578,650.219 c 0,0 -71.582,81.961 12.633,203.648 0,0 -16.215,75.77 -107.91,97.629 0,0 -74.153,-167.969 95.277,-301.277"
         style="fill:#ffffff;fill-opacity:1;fill-rule:nonzero;stroke:none"
         id="path26" /><path
         d="m 716.117,968.547 c 0,0 -1.758,-33.524 48.219,-82.328 50,-48.817 45.023,-120.457 45.023,-120.457 0,0 188.278,51.328 53.899,249.958 0,0 -57.262,-65.712 -147.141,-47.173"
         style="fill:#ffffff;fill-opacity:1;fill-rule:nonzero;stroke:none"
         id="path28" /><path
         d="m 913.473,840.18 c 0,0 -35.16,-102.961 -182.653,-90.922 0,0 -57.507,-51.903 -30.57,-142.27 0,0 182.543,19.813 213.223,233.192"
         style="fill:#ffffff;fill-opacity:1;fill-rule:nonzero;stroke:none"
         id="path30" /><path
         d="m 993.617,646.961 h 5.305 v 415.699 h -5.305 V 646.961"
         style="fill:#ffffff;fill-opacity:1;fill-rule:nonzero;stroke:none"
         id="path32" /><path
         d="m 1089.62,928.305 h 12.07 c 6.25,0 11,1.265 14.24,3.804 3.23,2.528 4.84,6.399 4.84,11.61 0,5.371 -1.61,9.226 -4.84,11.621 -3.24,2.375 -7.99,3.566 -14.24,3.566 h -12.07 z m 0,-38.184 h -10.04 v 78.164 h 23.01 c 4.45,0 8.45,-0.469 12,-1.394 3.54,-0.934 6.55,-2.399 9.09,-4.411 2.54,-2.011 4.46,-4.546 5.81,-7.597 1.34,-3.055 2.02,-6.699 2.02,-10.942 0,-8.121 -2.65,-14.312 -7.88,-18.586 -5.24,-4.281 -12.57,-6.425 -21.94,-6.425 h -12.07 v -28.809"
         style="fill:#ffffff;fill-opacity:1;fill-rule:nonzero;stroke:none"
         id="path34" /><path
         d="m 1167.56,896.039 c 2.01,0.895 3.79,2.184 5.31,3.859 1.52,1.676 2.91,3.915 4.19,6.754 l 0.78,1.782 -29.15,59.859 h 11.29 l 23.11,-49.027 18.53,49.027 h 10.16 l -25.57,-63.316 c -0.58,-1.497 -1.34,-3.039 -2.23,-4.633 -0.89,-1.61 -1.9,-3.129 -3.02,-4.586 -1.12,-1.442 -2.37,-2.77 -3.74,-3.961 -1.36,-1.188 -2.81,-2.113 -4.29,-2.785 l -5.37,7.027"
         style="fill:#ffffff;fill-opacity:1;fill-rule:nonzero;stroke:none"
         id="path36" /><path
         d="m 1286.13,892.254 c -2.14,-1.059 -4.67,-1.852 -7.57,-2.406 -2.92,-0.567 -6.07,-0.836 -9.5,-0.836 -6.1,0 -11.55,0.91 -16.35,2.738 -4.8,1.824 -8.88,4.438 -12.23,7.871 -3.34,3.422 -5.91,7.531 -7.71,12.332 -1.78,4.801 -2.67,10.223 -2.67,16.246 0,6.625 0.89,12.504 2.67,17.637 1.8,5.141 4.37,9.453 7.71,12.961 3.35,3.492 7.39,6.141 12.12,7.922 4.71,1.789 9.99,2.687 15.79,2.687 4.48,0 8.1,-0.324 10.9,-0.949 2.8,-0.629 5.11,-1.332 6.97,-2.07 l -1.89,-8.824 c -2.46,0.89 -4.97,1.527 -7.49,1.902 -2.51,0.371 -5.02,0.558 -7.48,0.558 -9.3,0 -16.39,-2.605 -21.26,-7.816 -4.88,-5.211 -7.32,-12.879 -7.32,-23.004 0,-4.844 0.68,-9.172 2.06,-13.012 1.38,-3.832 3.34,-7.07 5.87,-9.707 2.53,-2.644 5.62,-4.656 9.27,-6.031 3.64,-1.379 7.77,-2.062 12.39,-2.062 2.46,0 4.92,0.218 7.42,0.672 2.5,0.445 4.71,1.144 6.64,2.109 l 1.66,-8.918"
         style="fill:#ffffff;fill-opacity:1;fill-rule:nonzero;stroke:none"
         id="path38" /><path
         d="m 1327.34,920.156 h 26.92 l -13.07,36.742 h -0.45 z m 30.15,-9.148 h -33.38 l -7.6,-20.887 h -10.15 l 29.82,78.172 h 10.04 l 29.26,-78.172 h -10.51 l -7.48,20.887"
         style="fill:#ffffff;fill-opacity:1;fill-rule:nonzero;stroke:none"
         id="path40" /><path
         d="m 1417.57,890.121 h -10.05 v 68.785 h -23.12 v 9.379 h 56.27 v -9.379 h -23.1 v -68.785"
         style="fill:#ffffff;fill-opacity:1;fill-rule:nonzero;stroke:none"
         id="path42" /><path
         d="m 1494.95,898.391 c 7.36,0 13.16,2.578 17.35,7.765 4.22,5.164 6.31,12.848 6.31,23.047 0,5.367 -0.56,9.977 -1.73,13.852 -1.15,3.867 -2.8,7.062 -4.97,9.601 -2.15,2.524 -4.77,4.395 -7.86,5.578 -3.09,1.192 -6.57,1.789 -10.45,1.789 -3.42,0 -6.62,-0.636 -9.59,-1.902 -2.99,-1.266 -5.55,-3.16 -7.71,-5.687 -2.16,-2.536 -3.87,-5.739 -5.14,-9.606 -1.25,-3.871 -1.88,-8.414 -1.88,-13.625 0,-5.137 0.6,-9.637 1.82,-13.504 1.23,-3.879 2.96,-7.101 5.2,-9.66 2.24,-2.566 4.92,-4.484 8.1,-5.75 3.16,-1.273 6.68,-1.898 10.55,-1.898 m -1,-9.379 c -5.43,0 -10.34,0.933 -14.68,2.785 -4.37,1.859 -8.09,4.516 -11.17,7.988 -3.1,3.457 -5.44,7.684 -7.09,12.668 -1.63,4.988 -2.47,10.574 -2.47,16.75 0,6.258 0.85,11.856 2.58,16.805 1.71,4.945 4.1,9.16 7.21,12.621 3.08,3.457 6.77,6.117 11.09,7.976 4.33,1.868 9.04,2.801 14.18,2.801 5.81,0 10.93,-0.992 15.36,-2.965 4.43,-1.972 8.15,-4.738 11.17,-8.265 3.01,-3.535 5.31,-7.774 6.86,-12.727 1.56,-4.949 2.35,-10.359 2.35,-16.246 0,-6.625 -0.9,-12.449 -2.69,-17.48 -1.78,-5.012 -4.23,-9.2 -7.36,-12.563 -3.13,-3.344 -6.85,-5.875 -11.17,-7.582 -4.32,-1.703 -9.04,-2.566 -14.17,-2.566"
         style="fill:#ffffff;fill-opacity:1;fill-rule:nonzero;stroke:none"
         id="path44" /><path
         d="m 1633.62,890.121 h -10.05 l -4.79,61.074 -19.78,-61.074 h -10.48 l -19.65,60.856 -4.91,-60.856 h -10.04 l 6.69,78.164 h 12.28 l 21.09,-67.226 20.66,67.226 h 12.28 l 6.7,-78.164"
         style="fill:#ffffff;fill-opacity:1;fill-rule:nonzero;stroke:none"
         id="path46" /><path
         d="m 1751.43,892.254 c -2.16,-1.059 -4.7,-1.852 -7.6,-2.406 -2.9,-0.567 -6.08,-0.836 -9.48,-0.836 -6.12,0 -11.58,0.91 -16.37,2.738 -4.8,1.824 -8.88,4.438 -12.22,7.871 -3.35,3.422 -5.93,7.531 -7.71,12.332 -1.78,4.801 -2.67,10.223 -2.67,16.246 0,6.625 0.89,12.504 2.67,17.637 1.78,5.141 4.36,9.453 7.71,12.961 3.34,3.492 7.39,6.141 12.11,7.922 4.72,1.789 9.99,2.687 15.8,2.687 4.46,0 8.1,-0.324 10.89,-0.949 2.78,-0.629 5.12,-1.332 6.97,-2.07 l -1.89,-8.824 c -2.46,0.89 -4.96,1.527 -7.48,1.902 -2.54,0.371 -5.03,0.558 -7.48,0.558 -9.3,0 -16.39,-2.605 -21.26,-7.816 -4.89,-5.211 -7.33,-12.879 -7.33,-23.004 0,-4.844 0.69,-9.172 2.05,-13.012 1.39,-3.832 3.35,-7.07 5.87,-9.707 2.54,-2.644 5.63,-4.656 9.27,-6.031 3.65,-1.379 7.77,-2.062 12.39,-2.062 2.46,0 4.94,0.218 7.44,0.672 2.49,0.445 4.7,1.144 6.64,2.109 l 1.68,-8.918"
         style="fill:#ffffff;fill-opacity:1;fill-rule:nonzero;stroke:none"
         id="path48" /><path
         d="m 1823.11,890.121 h -43.67 v 78.164 h 43.67 v -9.379 h -33.61 v -23.668 h 30.71 v -9.164 h -30.71 v -26.566 h 33.61 v -9.387"
         style="fill:#ffffff;fill-opacity:1;fill-rule:nonzero;stroke:none"
         id="path50" /><path
         d="m 1861.64,928.305 h 12.03 c 6.26,0 11.02,1.265 14.25,3.804 3.24,2.528 4.85,6.399 4.85,11.61 0,5.371 -1.61,9.226 -4.85,11.621 -3.23,2.375 -7.99,3.566 -14.25,3.566 h -12.03 z m 0,-38.184 h -10.07 v 78.164 h 23.01 c 4.45,0 8.47,-0.469 12,-1.394 3.55,-0.934 6.56,-2.399 9.09,-4.411 2.54,-2.011 4.48,-4.546 5.81,-7.597 1.35,-3.055 2.01,-6.699 2.01,-10.942 0,-8.121 -2.61,-14.312 -7.86,-18.586 -5.24,-4.281 -12.56,-6.425 -21.96,-6.425 h -12.03 v -28.809"
         style="fill:#ffffff;fill-opacity:1;fill-rule:nonzero;stroke:none"
         id="path52" /><path
         d="m 1939.23,899.508 h 13.75 c 10.93,0 16.4,4.238 16.4,12.722 0,4.918 -1.55,8.446 -4.63,10.614 -3.09,2.152 -7.78,3.23 -14.03,3.23 h -11.49 z m 0,35.062 h 10.71 c 3.35,0 6.18,0.328 8.5,0.996 2.3,0.676 4.16,1.602 5.58,2.793 1.41,1.188 2.43,2.633 3.07,4.301 0.62,1.676 0.95,3.485 0.95,5.418 0,3.496 -1.23,6.18 -3.69,8.039 -2.46,1.856 -6.7,2.789 -12.74,2.789 h -12.38 z m -10.05,-44.449 v 78.172 h 23.8 c 4.51,0 8.4,-0.465 11.59,-1.402 3.19,-0.934 5.81,-2.27 7.81,-4.024 2.01,-1.742 3.48,-3.84 4.36,-6.246 0.9,-2.422 1.36,-5.082 1.36,-7.98 0,-4.625 -1.27,-8.473 -3.81,-11.567 -2.53,-3.09 -6.25,-5.148 -11.17,-6.187 v -0.231 c 5.59,-0.816 9.8,-2.886 12.68,-6.191 2.86,-3.313 4.29,-7.36 4.29,-12.121 0,-2.895 -0.52,-5.692 -1.56,-8.367 -1.05,-2.688 -2.67,-5.047 -4.92,-7.09 -2.23,-2.059 -5.09,-3.688 -8.59,-4.918 -3.5,-1.227 -7.73,-1.848 -12.73,-1.848 h -23.11"
         style="fill:#ffffff;fill-opacity:1;fill-rule:nonzero;stroke:none"
         id="path54" /><path
         d="m 2066.95,890.121 h -10.04 v 62.977 l -37.96,-62.977 h -11.38 v 78.164 h 10.05 v -62.976 l 37.96,62.976 h 11.37 v -78.164"
         style="fill:#ffffff;fill-opacity:1;fill-rule:nonzero;stroke:none"
         id="path56" /><path
         d="m 2150.93,892.254 c -2.17,-1.059 -4.69,-1.852 -7.59,-2.406 -2.9,-0.567 -6.07,-0.836 -9.49,-0.836 -6.12,0 -11.56,0.91 -16.36,2.738 -4.81,1.824 -8.87,4.438 -12.22,7.871 -3.37,3.422 -5.93,7.531 -7.72,12.332 -1.79,4.801 -2.68,10.223 -2.68,16.246 0,6.625 0.89,12.504 2.68,17.637 1.79,5.141 4.35,9.453 7.72,12.961 3.35,3.492 7.37,6.141 12.11,7.922 4.72,1.789 9.98,2.687 15.79,2.687 4.47,0 8.1,-0.324 10.89,-0.949 2.79,-0.629 5.12,-1.332 6.98,-2.07 l -1.89,-8.824 c -2.47,0.89 -4.96,1.527 -7.5,1.902 -2.52,0.371 -5.02,0.558 -7.48,0.558 -9.29,0 -16.39,-2.605 -21.27,-7.816 -4.87,-5.211 -7.31,-12.879 -7.31,-23.004 0,-4.844 0.68,-9.172 2.07,-13.012 1.37,-3.832 3.33,-7.07 5.87,-9.707 2.53,-2.644 5.62,-4.656 9.26,-6.031 3.65,-1.379 7.77,-2.062 12.4,-2.062 2.45,0 4.92,0.218 7.42,0.672 2.49,0.445 4.7,1.144 6.65,2.109 l 1.67,-8.918"
         style="fill:#ffffff;fill-opacity:1;fill-rule:nonzero;stroke:none"
         id="path58" /><path
         d="m 1087.72,774.277 h 9.65 c 5,0 8.82,1.016 11.41,3.028 2.6,2.031 3.89,5.136 3.89,9.316 0,4.297 -1.29,7.402 -3.89,9.317 -2.59,1.875 -6.41,2.851 -11.41,2.851 h -9.65 z m 0,-30.586 h -8.05 v 62.598 h 18.43 c 3.57,0 6.77,-0.371 9.61,-1.094 2.82,-0.761 5.25,-1.933 7.27,-3.554 2.04,-1.602 3.58,-3.633 4.67,-6.075 1.06,-2.461 1.59,-5.371 1.59,-8.75 0,-6.523 -2.1,-11.484 -6.29,-14.902 -4.21,-3.437 -10.07,-5.137 -17.58,-5.137 h -9.65 v -23.086"
         style="fill:#ffffff;fill-opacity:1;fill-rule:nonzero;stroke:none"
         id="path60" /><path
         d="m 1167.39,750.313 c 5.92,0 10.55,2.089 13.92,6.23 3.37,4.121 5.05,10.293 5.05,18.457 0,4.297 -0.46,7.969 -1.38,11.094 -0.94,3.086 -2.27,5.644 -3.98,7.676 -1.74,2.031 -3.84,3.515 -6.31,4.472 -2.48,0.977 -5.26,1.446 -8.36,1.446 -2.75,0 -5.31,-0.508 -7.69,-1.524 -2.39,-1.016 -4.45,-2.519 -6.18,-4.57 -1.72,-2.031 -3.09,-4.59 -4.1,-7.696 -1.03,-3.105 -1.52,-6.738 -1.52,-10.898 0,-4.121 0.48,-7.715 1.48,-10.801 0.98,-3.125 2.36,-5.683 4.14,-7.754 1.79,-2.07 3.96,-3.593 6.5,-4.609 2.52,-1.016 5.34,-1.523 8.43,-1.523 m -0.79,-7.52 c -4.35,0 -8.28,0.742 -11.78,2.227 -3.47,1.503 -6.46,3.632 -8.94,6.406 -2.46,2.773 -4.36,6.172 -5.67,10.156 -1.31,3.984 -1.96,8.457 -1.96,13.418 0,5.02 0.67,9.492 2.05,13.457 1.36,3.965 3.29,7.344 5.77,10.098 2.47,2.773 5.43,4.902 8.89,6.406 3.46,1.484 7.25,2.246 11.37,2.246 4.65,0 8.75,-0.801 12.28,-2.383 3.56,-1.582 6.55,-3.789 8.95,-6.621 2.42,-2.812 4.26,-6.23 5.51,-10.195 1.25,-3.965 1.87,-8.301 1.87,-13.008 0,-5.312 -0.7,-9.98 -2.15,-13.984 -1.42,-4.024 -3.39,-7.403 -5.9,-10.078 -2.51,-2.676 -5.48,-4.708 -8.94,-6.094 -3.46,-1.348 -7.24,-2.051 -11.35,-2.051"
         style="fill:#ffffff;fill-opacity:1;fill-rule:nonzero;stroke:none"
         id="path62" /><path
         d="m 1258.63,745.391 c -1.73,-0.821 -3.76,-1.465 -6.09,-1.914 -2.32,-0.469 -4.84,-0.684 -7.6,-0.684 -4.89,0 -9.27,0.742 -13.09,2.187 -3.84,1.465 -7.12,3.575 -9.82,6.329 -2.65,2.714 -4.73,6.015 -6.15,9.863 -1.44,3.848 -2.15,8.183 -2.15,13.008 0,5.332 0.71,10.039 2.15,14.14 1.42,4.102 3.5,7.578 6.15,10.391 2.7,2.773 5.93,4.922 9.72,6.348 3.8,1.406 8.01,2.148 12.64,2.148 3.6,0 6.5,-0.273 8.74,-0.781 2.23,-0.508 4.1,-1.035 5.58,-1.641 l -1.52,-7.07 c -1.97,0.703 -3.96,1.211 -5.99,1.523 -2.02,0.293 -4.03,0.45 -5.99,0.45 -7.46,0 -13.14,-2.09 -17.04,-6.27 -3.91,-4.16 -5.86,-10.313 -5.86,-18.418 0,-3.887 0.55,-7.344 1.65,-10.41 1.12,-3.067 2.68,-5.664 4.7,-7.793 2.02,-2.129 4.51,-3.711 7.42,-4.824 2.92,-1.114 6.23,-1.66 9.94,-1.66 1.97,0 3.95,0.175 5.93,0.527 2.01,0.351 3.78,0.937 5.34,1.719 l 1.34,-7.168"
         style="fill:#ffffff;fill-opacity:1;fill-rule:nonzero;stroke:none"
         id="path64" /><path
         d="m 1290.72,767.773 h 21.57 l -10.47,29.395 h -0.36 z m 24.14,-7.363 h -26.73 l -6.07,-16.719 h -8.13 l 23.86,62.618 h 8.06 l 23.43,-62.618 h -8.41 l -6.01,16.719"
         style="fill:#ffffff;fill-opacity:1;fill-rule:nonzero;stroke:none"
         id="path66" /><path
         d="m 1362.1,743.691 h -8.06 v 55.098 h -18.5 v 7.52 h 45.08 v -7.52 h -18.52 v -55.098"
         style="fill:#ffffff;fill-opacity:1;fill-rule:nonzero;stroke:none"
         id="path68" /><path
         d="m 1423.19,750.313 c 5.89,0 10.53,2.089 13.91,6.23 3.35,4.121 5.04,10.293 5.04,18.457 0,4.297 -0.46,7.969 -1.39,11.094 -0.93,3.086 -2.24,5.644 -3.97,7.676 -1.74,2.031 -3.84,3.515 -6.31,4.472 -2.47,0.977 -5.26,1.446 -8.35,1.446 -2.75,0 -5.32,-0.508 -7.7,-1.524 -2.4,-1.016 -4.46,-2.519 -6.17,-4.57 -1.74,-2.031 -3.08,-4.59 -4.12,-7.696 -1.01,-3.105 -1.52,-6.738 -1.52,-10.898 0,-4.121 0.51,-7.715 1.46,-10.801 1.01,-3.125 2.39,-5.683 4.18,-7.754 1.78,-2.07 3.94,-3.593 6.48,-4.609 2.54,-1.016 5.34,-1.523 8.46,-1.523 m -0.81,-7.52 c -4.34,0 -8.28,0.742 -11.76,2.227 -3.48,1.503 -6.48,3.632 -8.94,6.406 -2.49,2.773 -4.37,6.172 -5.68,10.156 -1.31,3.984 -1.98,8.457 -1.98,13.418 0,5.02 0.69,9.492 2.05,13.457 1.39,3.965 3.31,7.344 5.79,10.098 2.46,2.773 5.43,4.902 8.89,6.406 3.47,1.484 7.25,2.246 11.37,2.246 4.65,0 8.74,-0.801 12.28,-2.383 3.54,-1.582 6.54,-3.789 8.93,-6.621 2.44,-2.812 4.27,-6.23 5.51,-10.195 1.26,-3.965 1.87,-8.301 1.87,-13.008 0,-5.312 -0.7,-9.98 -2.13,-13.984 -1.43,-4.024 -3.39,-7.403 -5.9,-10.078 -2.51,-2.676 -5.49,-4.708 -8.95,-6.094 -3.46,-1.348 -7.25,-2.051 -11.35,-2.051"
         style="fill:#ffffff;fill-opacity:1;fill-rule:nonzero;stroke:none"
         id="path70" /><path
         d="m 1533.36,743.691 h -8.04 l -3.86,48.926 -15.83,-48.926 h -8.4 l -15.75,48.75 -3.92,-48.75 h -8.06 l 5.37,62.618 h 9.84 l 16.91,-53.848 16.54,53.848 h 9.84 l 5.36,-62.618"
         style="fill:#ffffff;fill-opacity:1;fill-rule:nonzero;stroke:none"
         id="path72" /></g></g></svg>
